<?xml version="1.0" standalone="no"?>
<!DOCTYPE svg PUBLIC "-//W3C//DTD SVG 20010904//EN"
 "http://www.w3.org/TR/2001/REC-SVG-20010904/DTD/svg10.dtd">
<svg version="1.0" xmlns="http://www.w3.org/2000/svg"
 width="700.000000pt" height="700.000000pt" viewBox="0 0 700.000000 700.000000"
 preserveAspectRatio="xMidYMid meet">
<metadata>
Created by potrace 1.11, written by Peter Selinger 2001-2013
</metadata>
<g transform="translate(0.000000,700.000000) scale(0.100000,-0.100000)"
fill="#000000" stroke="none">
<path d="M3330 6799 c-19 -4 -48 -9 -65 -12 -376 -60 -740 -307 -943 -639
-106 -173 -156 -313 -197 -553 -4 -22 -9 -164 -10 -315 -2 -151 -4 -280 -4
-286 -1 -6 -27 -14 -58 -17 -359 -40 -678 -265 -842 -593 -36 -73 -75 -188
-97 -284 -4 -19 -9 -340 -11 -712 -4 -770 -8 -729 74 -769 56 -27 193 -37 276
-19 65 13 111 51 120 100 4 17 7 315 8 663 1 698 -1 680 66 817 48 99 158 210
259 262 143 72 55 68 1612 67 l1397 -1 75 -24 c217 -68 379 -247 421 -467 5
-26 9 -333 9 -681 1 -712 -3 -681 76 -720 46 -23 216 -32 280 -15 52 14 101
48 114 80 13 30 9 1362 -4 1419 -29 130 -77 256 -137 360 -105 183 -316 363
-521 445 -94 37 -245 75 -303 75 -21 0 -35 5 -36 13 0 6 -2 136 -4 287 -2 151
-6 293 -9 314 -13 84 -17 103 -36 176 -94 368 -351 694 -692 875 -74 39 -216
98 -268 111 -153 37 -217 46 -360 48 -85 1 -171 -1 -190 -5z m395 -619 c227
-70 407 -232 502 -452 53 -122 63 -196 63 -484 l0 -254 -790 0 -791 0 1 263
c1 183 6 282 15 328 50 238 221 455 439 556 170 80 386 96 561 43z"/>
<path d="M3432 4133 c-17 -8 -364 -348 -771 -756 -766 -765 -761 -760 -761
-836 0 -41 37 -104 77 -131 l37 -25 406 -3 407 -3 0 -609 0 -609 23 -38 c24
-42 50 -63 95 -79 20 -7 200 -10 570 -10 537 2 540 2 576 24 19 12 46 41 59
64 l24 43 0 608 0 607 391 1 c214 0 398 2 408 4 36 7 88 51 107 91 25 50 25
99 2 143 -17 32 -1426 1449 -1490 1499 -40 30 -114 37 -160 15z"/>
<path d="M1263 2358 c-76 -8 -118 -29 -144 -71 -19 -31 -19 -50 -16 -607 l3
-575 27 -99 c95 -351 351 -632 685 -751 177 -63 75 -59 1657 -62 1248 -2 1451
0 1525 13 477 85 834 460 896 939 10 85 12 1063 1 1105 -20 80 -93 113 -247
112 -144 0 -209 -34 -224 -117 -3 -16 -6 -264 -7 -550 l-1 -520 -27 -80 c-38
-111 -74 -169 -156 -250 -86 -85 -204 -148 -305 -163 -63 -10 -2816 -9 -2865
1 -77 14 -135 39 -207 86 -118 77 -194 172 -247 310 l-26 66 -5 560 c-4 421
-8 565 -17 582 -37 64 -143 89 -300 71z"/>
</g>
</svg>
