<?xml version="1.0" encoding="utf-8"?>
<!-- Generator: Adobe Illustrator 21.0.0, SVG Export Plug-In . SVG Version: 6.00 Build 0)  -->
<svg version="1.1" id="Layer_2" xmlns="http://www.w3.org/2000/svg" xmlns:xlink="http://www.w3.org/1999/xlink" x="0px" y="0px"
	 viewBox="0 0 700 700" style="enable-background:new 0 0 700 700;" xml:space="preserve">
<style type="text/css">
	.st0{display:none;}
	.st1{display:inline;}
</style>
<g id="Logo">
	<g>
		<path d="M564.2,463.5c-6.7,0-22.5,0-22.5,14.1v95c0,32.9-27,59.9-59.9,59.9H218c-33,0-59.9-27-59.9-59.9v-95
			c0-14.1-15.8-14.1-22.5-14.1c-7.2,0-25.4-0.1-25.4,14.1v95c0,59.5,48.3,107.9,108,107.9h263.8c59.7,0,108-48.3,108-107.9v-95
			C589.6,463.3,571.5,463.5,564.2,463.5z"/>
		<path d="M488.3,201.7v-43.8c0-76.2-62.1-138.3-138.5-138.3S211.4,81.7,211.4,157.9v43.8c-56.5,3.6-101.3,50-101.3,107.3v117.7
			c0,14.2,18.2,14.1,25.4,14.1c6.7,0,22.5,0,22.5-14.1V309c0-32.9,27-59.9,59.9-59.9h263.8c33,0,59.9,27,59.9,59.9v117.7
			c0,14.1,15.8,14.1,22.5,14.1c7.2,0,25.4,0.1,25.4-14.1V309C589.6,251.7,544.8,205.3,488.3,201.7z M428.9,201.2H270.8V158
			c0-43.6,35.5-79.1,79.1-79.1s79.1,35.5,79.1,79.1V201.2z"/>
		<path d="M299.3,596.3h101c9.1,0,16.8-7.6,16.8-16.8V461.8H493c9.1,0,16.8-7.6,16.8-16.8c0-4.5-1.8-8.6-5.1-11.9l-143-143
			c-3.1-3.1-7.4-5.1-11.9-5.1s-8.6,1.9-11.9,5.1l-143,143c-3.1,3.1-4.9,7.4-4.9,11.9c0,9.1,7.6,16.8,16.8,16.8h75.8v117.7
			C282.5,588.7,290.2,596.3,299.3,596.3z"/>
	</g>
	<g class="st0">
		<path class="st1" d="M213.6,460.7h72.1v112.1c0,8.7,7.2,16,16,16h96.1c8.7,0,16-7.2,16-16V460.7h72.1c8.7,0,16-7.2,16-16
			c0-4.2-1.8-8.2-4.8-11.3L360.9,297.3c-3-3-7-4.8-11.3-4.8s-8.2,1.8-11.3,4.8L202.4,433.6c-3,3-4.8,7-4.8,11.3
			C197.6,453.5,204.9,460.7,213.6,460.7z"/>
		<path class="st1" d="M564.2,463.5c-6.7,0-22.5,0-22.5,14.1v95c0,32.9-27,59.9-59.9,59.9H218c-33,0-59.9-27-59.9-59.9v-95
			c0-14.1-15.8-14.1-22.5-14.1c-7.2,0-25.4-0.1-25.4,14.1v95c0,59.5,48.3,107.9,108,107.9h263.8c59.7,0,108-48.3,108-107.9v-95
			C589.6,463.3,571.5,463.5,564.2,463.5z"/>
		<path class="st1" d="M488.3,201.4v-43.6c0-76.2-62.1-138.3-138.5-138.3S211.4,81.7,211.4,157.9v43.6
			c-56.5,3.4-101.3,50.2-101.3,107.6v117.7c0,14.2,18.2,14.1,25.4,14.1c6.7,0,22.5,0,22.5-14.1V309c0-32.9,27-59.9,59.9-59.9h263.8
			c33,0,59.9,27,59.9,59.9v117.7c0,14.1,15.8,14.1,22.5,14.1c7.2,0,25.4,0.1,25.4-14.1V309C589.6,251.7,544.8,204.9,488.3,201.4z
			 M349.9,78.8c43.6,0,79.1,35.5,79.1,79.1v43.3H270.8V158C270.8,114.3,306.3,78.8,349.9,78.8z"/>
	</g>
</g>
</svg>
