<?xml version="1.0" encoding="utf-8"?>
<!-- Generator: Adobe Illustrator 21.0.0, SVG Export Plug-In . SVG Version: 6.00 Build 0)  -->
<svg version="1.1" xmlns="http://www.w3.org/2000/svg" xmlns:xlink="http://www.w3.org/1999/xlink" x="0px" y="0px"
	 viewBox="0 0 512 512" style="enable-background:new 0 0 512 512;" xml:space="preserve">
<style type="text/css">
	.st0{display:none;}
	.st1{display:inline;fill:#1A1A1A;}
	.st2{fill:#222222;}
	.st3{display:inline;}
	.st4{fill:#FFFFFF;}
	.st5{display:inline;fill:#FFFFFF;}
	.st6{font-family:'Lato-Regular';}
	.st7{font-size:71.1393px;}
</style>
<g id="BG" class="st0">
	<rect x="0" class="st1" width="512" height="512"/>
</g>
<g id="Layer_6">
	<path class="st2" d="M448,512H64c-35.2,0-64-28.8-64-64V64C0,28.8,28.8,0,64,0h384c35.2,0,64,28.8,64,64v384
		C512,483.2,483.2,512,448,512z"/>
</g>
<g id="CloudNonCompound" class="st0">
	<g class="st3">
		<circle class="st4" cx="105.4" cy="315.6" r="91"/>
		<circle class="st4" cx="197.5" cy="227.9" r="122.5"/>
		<circle class="st4" cx="341.5" cy="245.6" r="85.5"/>
		<circle class="st4" cx="405.4" cy="314.3" r="92.3"/>
		<rect x="103.7" y="291.2" class="st4" width="295.1" height="115.5"/>
	</g>
</g>
<g id="Cloud" class="st0">
</g>
<g id="Logo">
	<g>
		<path class="st4" d="M413,339.1c-4.9,0-16.5,0-16.5,10.3V419c0,24.1-19.8,43.9-43.9,43.9H159.4c-24.2,0-43.9-19.8-43.9-43.9v-69.6
			c0-10.3-11.6-10.3-16.5-10.3c-5.3,0-18.6-0.1-18.6,10.3V419c0,43.6,35.4,79,79.1,79h193.2c43.7,0,79.1-35.4,79.1-79v-69.6
			C431.6,339,418.3,339.1,413,339.1z"/>
		<path class="st4" d="M357.4,147.4v-32.1C357.4,59.5,311.9,14,256,14S154.6,59.5,154.6,115.3v32.1C113.2,150,80.4,184,80.4,226
			v86.2c0,10.4,13.3,10.3,18.6,10.3c4.9,0,16.5,0,16.5-10.3V226c0-24.1,19.8-43.9,43.9-43.9h193.2c24.2,0,43.9,19.8,43.9,43.9v86.2
			c0,10.3,11.6,10.3,16.5,10.3c5.3,0,18.6,0.1,18.6-10.3V226C431.6,184,398.8,150,357.4,147.4z M313.9,147H198.1v-31.6
			c0-31.9,26-57.9,57.9-57.9c31.9,0,57.9,26,57.9,57.9V147z"/>
		<path class="st4" d="M219,436.4h74c6.7,0,12.3-5.6,12.3-12.3v-86.2h55.5c6.7,0,12.3-5.6,12.3-12.3c0-3.3-1.3-6.3-3.7-8.7
			L264.7,212.2c-2.3-2.3-5.4-3.7-8.7-3.7s-6.3,1.4-8.7,3.7L142.6,316.9c-2.3,2.3-3.6,5.4-3.6,8.7c0,6.7,5.6,12.3,12.3,12.3h55.5
			v86.2C206.7,430.8,212.3,436.4,219,436.4z M256,293.8c13.7,0,24.8,11.1,24.8,24.8c0,9.1-5.1,16.7-12.4,21v30.8
			c0,6.8-5.6,12.4-12.4,12.4s-12.4-5.6-12.4-12.4v-30.8c-7.3-4.3-12.4-11.9-12.4-21C231.2,304.9,242.3,293.8,256,293.8z"/>
	</g>
	<g class="st0">
		<path class="st5" d="M156.2,337.1h52.8v82.1c0,6.4,5.3,11.7,11.7,11.7h70.4c6.4,0,11.7-5.3,11.7-11.7v-82.1h52.8
			c6.4,0,11.7-5.3,11.7-11.7c0-3.1-1.3-6-3.5-8.3l-99.7-99.7c-2.2-2.2-5.1-3.5-8.3-3.5s-6,1.3-8.3,3.5L148,317.2
			c-2.2,2.2-3.5,5.1-3.5,8.3C144.5,331.8,149.8,337.1,156.2,337.1z"/>
		<path class="st5" d="M413,339.1c-4.9,0-16.5,0-16.5,10.3V419c0,24.1-19.8,43.9-43.9,43.9H159.4c-24.2,0-43.9-19.8-43.9-43.9v-69.6
			c0-10.3-11.6-10.3-16.5-10.3c-5.3,0-18.6-0.1-18.6,10.3V419c0,43.6,35.4,79,79.1,79h193.2c43.7,0,79.1-35.4,79.1-79v-69.6
			C431.6,339,418.3,339.1,413,339.1z"/>
		<path class="st5" d="M357.4,147.2v-31.9C357.4,59.5,311.9,14,256,14S154.6,59.5,154.6,115.3v31.9c-41.4,2.5-74.2,36.8-74.2,78.8
			v86.2c0,10.4,13.3,10.3,18.6,10.3c4.9,0,16.5,0,16.5-10.3V226c0-24.1,19.8-43.9,43.9-43.9h193.2c24.2,0,43.9,19.8,43.9,43.9v86.2
			c0,10.3,11.6,10.3,16.5,10.3c5.3,0,18.6,0.1,18.6-10.3V226C431.6,184,398.8,149.7,357.4,147.2z M256,57.4
			c31.9,0,57.9,26,57.9,57.9V147H198.1v-31.6C198.1,83.4,224.1,57.4,256,57.4z"/>
	</g>
</g>
<g id="Text" class="st0">
	<text transform="matrix(1 0 0 1 155.9186 298.3174)" class="st5 st6 st7">AP-I</text>
	<text transform="matrix(0.7 0 0 0.7 293.1442 298.3174)" class="st5 st6 st7">mages</text>
</g>
</svg>
