<?xml version="1.0" encoding="utf-8"?>
<!-- Generator: Adobe Illustrator 21.0.0, SVG Export Plug-In . SVG Version: 6.00 Build 0)  -->
<svg version="1.1" id="Layer_1" xmlns="http://www.w3.org/2000/svg" xmlns:xlink="http://www.w3.org/1999/xlink" x="0px" y="0px"
	 viewBox="0 0 728 90" style="enable-background:new 0 0 728 90;" xml:space="preserve">
<style type="text/css">
	.st0{enable-background:new    ;}
	.st1{fill:#FFFFFF;}
</style>
<title>Artboard 1</title>
<g class="st0">
	<path class="st1" d="M213.7,28.8c0,1.5-0.5,2.6-1.5,3.4c-1,0.8-2.4,1.2-4.2,1.2h-1.6V39h-1.8V24.6h3.8
		C211.9,24.6,213.7,26,213.7,28.8z M206.4,31.7h1.4c1.4,0,2.4-0.2,3.1-0.7s1-1.2,1-2.2c0-0.9-0.3-1.6-0.9-2.1s-1.5-0.7-2.8-0.7h-1.8
		V31.7z"/>
</g>
<g class="st0">
	<path class="st1" d="M216.7,38.8v-10h1.3v8.9h4.4v1.1C222.4,38.8,216.7,38.8,216.7,38.8z"/>
	<path class="st1" d="M230,38.8h-5.6v-10h5.6V30h-4.3v3.1h4.1v1.1h-4.1v3.6h4.3V38.8z"/>
	<path class="st1" d="M238.9,38.8l-1.2-3.1h-4l-1.2,3.1h-1.3l3.9-10h1.1l3.9,10H238.9z M237.3,34.6l-1.1-3l-0.5-1.5
		c-0.1,0.5-0.3,1-0.4,1.5l-1.1,3H237.3z"/>
	<path class="st1" d="M247.6,36.2c0,0.9-0.3,1.6-0.9,2.1S245.2,39,244,39s-2.1-0.2-2.7-0.5v-1.2c0.4,0.2,0.9,0.3,1.4,0.4
		s1,0.2,1.4,0.2c0.7,0,1.3-0.1,1.7-0.4s0.6-0.7,0.6-1.2c0-0.3-0.1-0.6-0.2-0.8s-0.4-0.4-0.7-0.6s-0.8-0.4-1.5-0.6
		c-0.9-0.3-1.6-0.7-2-1.2s-0.6-1-0.6-1.8s0.3-1.4,0.9-1.9s1.4-0.7,2.3-0.7c1,0,1.9,0.2,2.8,0.6l-0.4,1.1c-0.9-0.4-1.7-0.5-2.4-0.5
		c-0.6,0-1.1,0.1-1.4,0.4s-0.5,0.6-0.5,1.1c0,0.3,0.1,0.6,0.2,0.8s0.3,0.4,0.6,0.6s0.7,0.4,1.4,0.6c0.7,0.3,1.3,0.5,1.7,0.8
		s0.6,0.6,0.8,0.9S247.6,35.7,247.6,36.2z"/>
	<path class="st1" d="M255.6,38.8H250v-10h5.6V30h-4.3v3.1h4.1v1.1h-4.1v3.6h4.3V38.8z"/>
</g>
<g class="st0">
	<path class="st1" d="M269.6,36.2c0,0.9-0.3,1.6-0.9,2.1S267.1,39,266,39c-1.2,0-2.1-0.2-2.7-0.5v-1.2c0.4,0.2,0.9,0.3,1.4,0.4
		s1,0.2,1.4,0.2c0.7,0,1.3-0.1,1.7-0.4s0.6-0.7,0.6-1.2c0-0.3-0.1-0.6-0.2-0.8s-0.4-0.4-0.7-0.6s-0.8-0.4-1.5-0.6
		c-0.9-0.3-1.6-0.7-2-1.2s-0.6-1-0.6-1.8s0.3-1.4,0.9-1.9s1.4-0.7,2.3-0.7c1,0,1.9,0.2,2.8,0.6l-0.4,1.1c-0.9-0.4-1.7-0.5-2.4-0.5
		c-0.6,0-1.1,0.1-1.4,0.4s-0.5,0.6-0.5,1.1c0,0.3,0.1,0.6,0.2,0.8s0.3,0.4,0.6,0.6s0.7,0.4,1.4,0.6c0.7,0.3,1.3,0.5,1.7,0.8
		s0.6,0.6,0.8,0.9S269.6,35.7,269.6,36.2z"/>
	<path class="st1" d="M279.6,28.8v6.5c0,1.1-0.3,2-1,2.7s-1.6,1-2.9,1c-1.2,0-2.1-0.3-2.8-1s-1-1.6-1-2.7v-6.4h1.3v6.5
		c0,0.8,0.2,1.4,0.7,1.9s1.1,0.7,2,0.7c0.8,0,1.5-0.2,1.9-0.7s0.7-1.1,0.7-1.9v-6.5h1.1L279.6,28.8L279.6,28.8z"/>
	<path class="st1" d="M289,31.8c0,1-0.3,1.8-1,2.3s-1.7,0.9-3,0.9h-1.1v3.9h-1.3v-10h2.6C287.8,28.8,289,29.8,289,31.8z M283.9,33.9
		h1c1,0,1.7-0.2,2.2-0.5s0.7-0.8,0.7-1.5c0-0.6-0.2-1.1-0.6-1.4s-1.1-0.5-1.9-0.5H284v3.9H283.9z"/>
	<path class="st1" d="M297.9,31.8c0,1-0.3,1.8-1,2.3s-1.7,0.8-2.9,0.8h-1.1v3.9h-1.3v-10h2.6C296.7,28.8,297.9,29.8,297.9,31.8z
		 M292.8,33.9h1c1,0,1.7-0.2,2.2-0.5s0.7-0.8,0.7-1.5c0-0.6-0.2-1.1-0.6-1.4S295,30,294.2,30h-1.3v3.9H292.8z"/>
	<path class="st1" d="M309.1,33.8c0,1.6-0.4,2.9-1.2,3.8S306,39,304.5,39s-2.6-0.5-3.4-1.4s-1.2-2.2-1.2-3.8s0.4-2.9,1.2-3.8
		s1.9-1.3,3.4-1.3c1.4,0,2.6,0.5,3.4,1.4S309.1,32.2,309.1,33.8z M301.2,33.8c0,1.3,0.3,2.3,0.8,3s1.4,1,2.5,1s1.9-0.3,2.4-1
		s0.8-1.7,0.8-3s-0.3-2.3-0.8-3s-1.4-1-2.4-1c-1.1,0-1.9,0.3-2.5,1S301.2,32.5,301.2,33.8z"/>
	<path class="st1" d="M313,34.7v4.1h-1.3v-10h2.8c1.2,0,2.2,0.2,2.8,0.7s0.9,1.2,0.9,2.1c0,1.3-0.7,2.2-2,2.7l2.7,4.5h-1.5l-2.4-4.1
		H313z M313,33.6h1.5c0.8,0,1.4-0.2,1.8-0.5s0.6-0.8,0.6-1.4s-0.2-1.1-0.6-1.4s-1-0.4-1.8-0.4H313V33.6z"/>
	<path class="st1" d="M324,38.8h-1.3V30h-3.1v-1.1h7.5V30H324V38.8z"/>
</g>
<g class="st0">
	<path class="st1" d="M342.3,28.8v6.5c0,1.1-0.3,2-1,2.7s-1.6,1-2.9,1c-1.2,0-2.1-0.3-2.8-1s-1-1.6-1-2.7v-6.4h1.3v6.5
		c0,0.8,0.2,1.4,0.7,1.9s1.1,0.7,2,0.7c0.8,0,1.5-0.2,1.9-0.7s0.7-1.1,0.7-1.9v-6.5h1.1L342.3,28.8L342.3,28.8z"/>
	<path class="st1" d="M351,36.2c0,0.9-0.3,1.6-0.9,2.1s-1.5,0.8-2.6,0.8c-1.2,0-2.1-0.2-2.7-0.5v-1.2c0.4,0.2,0.9,0.3,1.4,0.4
		s1,0.2,1.4,0.2c0.7,0,1.3-0.1,1.7-0.4s0.6-0.7,0.6-1.2c0-0.3-0.1-0.6-0.2-0.8s-0.4-0.4-0.7-0.6s-0.8-0.4-1.5-0.6
		c-0.9-0.3-1.6-0.7-2-1.2s-0.6-1-0.6-1.8s0.3-1.4,0.9-1.9s1.4-0.7,2.3-0.7c1,0,1.9,0.2,2.8,0.6l-0.4,1.1c-0.9-0.4-1.7-0.5-2.4-0.5
		c-0.6,0-1.1,0.1-1.4,0.4s-0.5,0.6-0.5,1.1c0,0.3,0.1,0.6,0.2,0.8s0.3,0.4,0.6,0.6s0.7,0.4,1.4,0.6c0.7,0.3,1.3,0.5,1.7,0.8
		s0.6,0.6,0.8,0.9S351,35.7,351,36.2z"/>
</g>
<g class="st0">
	<path class="st1" d="M359.1,28.8h2.9c1.3,0,2.3,0.2,2.9,0.6s0.9,1,0.9,1.9c0,0.6-0.2,1.1-0.5,1.5s-0.8,0.6-1.4,0.7v0.1
		c0.8,0.1,1.3,0.4,1.7,0.8c0.4,0.4,0.5,0.9,0.5,1.6c0,0.9-0.3,1.6-0.9,2.1s-1.5,0.8-2.6,0.8h-3.5V28.8z M360.4,33.1h1.8
		c0.8,0,1.4-0.1,1.7-0.4s0.5-0.7,0.5-1.3c0-0.5-0.2-0.9-0.6-1.2c-0.4-0.2-1-0.4-1.8-0.4h-1.7v3.3H360.4z M360.4,34.2v3.6h2
		c0.8,0,1.4-0.2,1.8-0.5s0.6-0.8,0.6-1.4c0-0.6-0.2-1-0.6-1.3s-1-0.4-1.8-0.4C362.4,34.2,360.4,34.2,360.4,34.2z"/>
</g>
<g class="st0">
	<path class="st1" d="M371.2,33.8l2.6-4.9h1.4l-3.3,6.1v3.9h-1.3V35l-3.3-6.2h1.4L371.2,33.8z"/>
</g>
<g class="st0">
	<path class="st1" d="M391.4,38.8h-1.3l-1.9-6.5c-0.3-1-0.5-1.6-0.5-2c-0.1,0.5-0.2,1.2-0.5,2l-1.9,6.5H384l-2.6-10h1.3l1.6,6.1
		c0.2,0.8,0.4,1.6,0.5,2.4c0.1-0.7,0.3-1.6,0.5-2.5l1.8-6h1.3l1.8,6.1c0.2,0.8,0.4,1.6,0.5,2.4c0.1-0.6,0.2-1.4,0.5-2.4l1.5-6.1h1.3
		L391.4,38.8z"/>
	<path class="st1" d="M403.7,38.8h-1.3v-4.7h-5.1v4.7H396v-10h1.3V33h5.1v-4.2h1.3L403.7,38.8L403.7,38.8z"/>
	<path class="st1" d="M409.7,38.8H406v-0.7l1.2-0.3v-8l-1.2-0.3v-0.7h3.6v0.7l-1.2,0.3v8l1.2,0.3v0.7H409.7z"/>
	<path class="st1" d="M415.2,38.8h-1.3V30h-3.1v-1.1h7.5V30h-3.1V38.8z"/>
	<path class="st1" d="M425.8,38.8h-5.6v-10h5.6V30h-4.3v3.1h4.1v1.1h-4.1v3.6h4.3V38.8z"/>
	<path class="st1" d="M428.4,38.8v-10h1.3v8.9h4.4v1.1C434.1,38.8,428.4,38.8,428.4,38.8z"/>
	<path class="st1" d="M438.9,38.8h-3.6v-0.7l1.2-0.3v-8l-1.2-0.3v-0.7h3.6v0.7l-1.2,0.3v8l1.2,0.3V38.8z"/>
	<path class="st1" d="M446.9,36.2c0,0.9-0.3,1.6-0.9,2.1s-1.5,0.8-2.6,0.8c-1.2,0-2.1-0.2-2.7-0.5v-1.2c0.4,0.2,0.9,0.3,1.4,0.4
		c0.5,0.1,1,0.2,1.4,0.2c0.7,0,1.3-0.1,1.7-0.4s0.6-0.7,0.6-1.2c0-0.3-0.1-0.6-0.2-0.8s-0.4-0.4-0.7-0.6c-0.3-0.2-0.8-0.4-1.5-0.6
		c-0.9-0.3-1.6-0.7-2-1.2s-0.6-1-0.6-1.8s0.3-1.4,0.9-1.9s1.4-0.7,2.3-0.7c1,0,1.9,0.2,2.8,0.6l-0.4,1.1c-0.9-0.4-1.7-0.5-2.4-0.5
		c-0.6,0-1.1,0.1-1.4,0.4s-0.5,0.6-0.5,1.1c0,0.3,0.1,0.6,0.2,0.8s0.3,0.4,0.6,0.6c0.3,0.2,0.7,0.4,1.4,0.6c0.7,0.3,1.3,0.5,1.7,0.8
		s0.6,0.6,0.8,0.9S446.9,35.7,446.9,36.2z"/>
	<path class="st1" d="M452.5,38.8h-1.3V30h-3.1v-1.1h7.5V30h-3.1V38.8z"/>
	<path class="st1" d="M460.4,38.8h-3.6v-0.7l1.2-0.3v-8l-1.2-0.3v-0.7h3.6v0.7l-1.2,0.3v8l1.2,0.3V38.8z"/>
	<path class="st1" d="M470.6,38.8h-1.5l-5.4-8.3h-0.1v0.6c0.1,0.8,0.1,1.5,0.1,2.2v5.6h-1.2v-10h1.5l0.3,0.5l3.3,5.1l1.7,2.7h0.1
		c0-0.1,0-0.5-0.1-1.2s0-1.2,0-1.5v-5.6h1.2v9.9C470.5,38.8,470.6,38.8,470.6,38.8z"/>
	<path class="st1" d="M478.1,33.6h3.5v4.9c-0.5,0.2-1.1,0.3-1.6,0.4s-1.3,0.1-2,0.1c-1.5,0-2.7-0.5-3.5-1.4s-1.3-2.2-1.3-3.8
		c0-1,0.2-2,0.6-2.7s1-1.4,1.8-1.8s1.7-0.6,2.8-0.6c1.1,0,2.1,0.2,3,0.6l-0.5,1.1c-0.9-0.4-1.7-0.6-2.6-0.6c-1.2,0-2.1,0.4-2.8,1.1
		s-1,1.7-1,3c0,1.3,0.3,2.3,1,3s1.6,1,2.8,1c0.7,0,1.3-0.1,2-0.2v-3h-2.2L478.1,33.6L478.1,33.6z"/>
</g>
<g class="st0">
	<path class="st1" d="M498.7,33.8c0,1.6-0.4,2.9-1.2,3.8c-0.8,0.9-1.9,1.4-3.4,1.4s-2.6-0.5-3.4-1.4s-1.2-2.2-1.2-3.8
		s0.4-2.9,1.2-3.8c0.8-0.9,1.9-1.3,3.4-1.3c1.4,0,2.6,0.5,3.4,1.4S498.7,32.2,498.7,33.8z M490.8,33.8c0,1.3,0.3,2.3,0.8,3
		s1.4,1,2.5,1s1.9-0.3,2.4-1s0.8-1.7,0.8-3s-0.3-2.3-0.8-3s-1.4-1-2.4-1c-1.1,0-1.9,0.3-2.5,1S490.8,32.5,490.8,33.8z"/>
	<path class="st1" d="M508.9,28.8v6.5c0,1.1-0.3,2-1,2.7s-1.6,1-2.9,1c-1.2,0-2.1-0.3-2.8-1s-1-1.6-1-2.7v-6.4h1.3v6.5
		c0,0.8,0.2,1.4,0.7,1.9c0.4,0.4,1.1,0.7,2,0.7c0.8,0,1.5-0.2,1.9-0.7c0.4-0.4,0.7-1.1,0.7-1.9v-6.5h1.1L508.9,28.8L508.9,28.8z"/>
	<path class="st1" d="M513.2,34.7v4.1h-1.3v-10h2.8c1.2,0,2.2,0.2,2.8,0.7s0.9,1.2,0.9,2.1c0,1.3-0.7,2.2-2,2.7l2.7,4.5h-1.5
		l-2.4-4.1H513.2z M513.2,33.6h1.5c0.8,0,1.4-0.2,1.8-0.5s0.6-0.8,0.6-1.4s-0.2-1.1-0.6-1.4s-1-0.4-1.8-0.4h-1.4L513.2,33.6
		L513.2,33.6z"/>
</g>
<g class="st0">
	<path class="st1" d="M258.5,62.8h-1.3l-1.9-6.5c-0.3-1-0.5-1.6-0.5-2c-0.1,0.5-0.2,1.2-0.5,2l-1.9,6.5h-1.3l-2.6-10h1.3l1.6,6.1
		c0.2,0.8,0.4,1.6,0.5,2.4c0.1-0.7,0.3-1.6,0.5-2.5l1.8-6h1.3l1.8,6.1c0.2,0.8,0.4,1.6,0.5,2.4c0.1-0.6,0.2-1.4,0.5-2.4l1.5-6.1h1.3
		L258.5,62.8z"/>
	<path class="st1" d="M268.7,62.8h-5.6v-10h5.6V54h-4.3v3.1h4.1v1.1h-4.1v3.6h4.3V62.8z"/>
	<path class="st1" d="M271.4,52.8h2.9c1.3,0,2.3,0.2,2.9,0.6c0.6,0.4,0.9,1,0.9,1.9c0,0.6-0.2,1.1-0.5,1.5s-0.8,0.6-1.4,0.7v0.1
		c0.8,0.1,1.3,0.4,1.7,0.8s0.5,0.9,0.5,1.6c0,0.9-0.3,1.6-0.9,2.1s-1.5,0.8-2.6,0.8h-3.5V52.8z M272.6,57.1h1.8
		c0.8,0,1.4-0.1,1.7-0.4s0.5-0.7,0.5-1.3c0-0.5-0.2-0.9-0.6-1.2s-1-0.4-1.8-0.4h-1.7v3.3C272.5,57.1,272.6,57.1,272.6,57.1z
		 M272.6,58.2v3.6h2c0.8,0,1.4-0.2,1.8-0.5s0.6-0.8,0.6-1.4c0-0.6-0.2-1-0.6-1.3s-1-0.4-1.8-0.4C274.6,58.2,272.6,58.2,272.6,58.2z"
		/>
	<path class="st1" d="M286.5,60.2c0,0.9-0.3,1.6-0.9,2.1S284.1,63,283,63c-1.2,0-2.1-0.2-2.7-0.5v-1.2c0.4,0.2,0.9,0.3,1.4,0.4
		s1,0.2,1.4,0.2c0.7,0,1.3-0.1,1.7-0.4s0.6-0.7,0.6-1.2c0-0.3-0.1-0.6-0.2-0.8s-0.4-0.4-0.7-0.6s-0.8-0.4-1.5-0.6
		c-0.9-0.3-1.6-0.7-2-1.2s-0.6-1-0.6-1.8s0.3-1.4,0.9-1.9s1.4-0.7,2.3-0.7c1,0,1.9,0.2,2.8,0.6l-0.4,1.1c-0.9-0.4-1.7-0.5-2.4-0.5
		c-0.6,0-1.1,0.1-1.4,0.4s-0.5,0.6-0.5,1.1c0,0.3,0.1,0.6,0.2,0.8s0.3,0.4,0.6,0.6s0.7,0.4,1.4,0.6c0.7,0.3,1.3,0.5,1.7,0.8
		c0.4,0.3,0.6,0.6,0.8,0.9C286.4,59.3,286.5,59.7,286.5,60.2z"/>
	<path class="st1" d="M291.8,62.8h-3.6v-0.7l1.2-0.3v-8l-1.2-0.3v-0.7h3.6v0.7l-1.2,0.3v8l1.2,0.3V62.8z"/>
	<path class="st1" d="M297.3,62.8H296V54h-3.1v-1.1h7.5V54h-3.1V62.8z"/>
	<path class="st1" d="M307.9,62.8h-5.6v-10h5.6V54h-4.3v3.1h4.1v1.1h-4.1v3.6h4.3V62.8z"/>
</g>
<g class="st0">
	<path class="st1" d="M319,62.8h-3.6v-0.7l1.2-0.3v-8l-1.2-0.3v-0.7h3.6v0.7l-1.2,0.3v8l1.2,0.3V62.8z"/>
	<path class="st1" d="M329.2,62.8h-1.5l-5.4-8.3h-0.1v0.6c0.1,0.8,0.1,1.5,0.1,2.2v5.6h-1.2v-10h1.5l0.3,0.5l3.3,5.1l1.7,2.7h0.1
		c0-0.1,0-0.5-0.1-1.2c0-0.7,0-1.2,0-1.5v-5.6h1.2v9.9C329.1,62.8,329.2,62.8,329.2,62.8z"/>
</g>
<g class="st0">
	<path class="st1" d="M340.7,57.8l2.6-4.9h1.4l-3.3,6.1v3.9H340V59l-3.3-6.2h1.4L340.7,57.8z"/>
</g>
<g class="st0">
	<path class="st1" d="M355,57.8c0,1.6-0.4,2.9-1.2,3.8s-1.9,1.4-3.4,1.4s-2.6-0.5-3.4-1.3c-0.8-0.9-1.2-2.2-1.2-3.8s0.4-2.9,1.2-3.8
		c0.8-0.9,1.9-1.3,3.4-1.3c1.4,0,2.6,0.5,3.4,1.4C354.6,55,355,56.2,355,57.8z M347.1,57.8c0,1.3,0.3,2.3,0.8,3s1.4,1,2.5,1
		s1.9-0.3,2.4-1s0.8-1.7,0.8-3s-0.3-2.3-0.8-3c-0.6-0.7-1.4-1-2.4-1c-1.1,0-1.9,0.3-2.5,1S347.1,56.5,347.1,57.8z"/>
	<path class="st1" d="M365.2,52.8v6.5c0,1.1-0.3,2-1,2.7s-1.6,1-2.9,1c-1.2,0-2.1-0.3-2.8-1c-0.7-0.7-1-1.6-1-2.7v-6.4h1.3v6.5
		c0,0.8,0.2,1.4,0.7,1.9s1.1,0.7,2,0.7c0.8,0,1.5-0.2,1.9-0.7s0.7-1.1,0.7-1.9v-6.5L365.2,52.8L365.2,52.8z"/>
	<path class="st1" d="M369.5,58.7v4.1h-1.3v-10h2.8c1.2,0,2.2,0.2,2.8,0.7c0.6,0.5,0.9,1.2,0.9,2.1c0,1.3-0.7,2.2-2,2.7l2.7,4.5
		h-1.5l-2.4-4.1H369.5z M369.5,57.6h1.5c0.8,0,1.4-0.2,1.8-0.5s0.6-0.8,0.6-1.4s-0.2-1.1-0.6-1.4c-0.4-0.3-1-0.4-1.8-0.4h-1.4v3.7
		C369.6,57.6,369.5,57.6,369.5,57.6z"/>
</g>
<g class="st0">
	<path class="st1" d="M392.6,62.8l-1.7-4.4h-5.7l-1.7,4.4h-1.8l5.6-14.3h1.6l5.6,14.3H392.6z M390.3,56.8l-1.6-4.3l-0.7-2.1
		c-0.2,0.8-0.4,1.5-0.6,2.1l-1.6,4.3H390.3z"/>
</g>
<g class="st0">
	<path class="st1" d="M404.4,57.7c0,1.6-0.5,2.9-1.3,3.8c-0.9,0.9-2.2,1.3-3.9,1.3h-2.8v-10h3.1c1.6,0,2.8,0.4,3.6,1.3
		C404,55,404.4,56.2,404.4,57.7z M403.1,57.8c0-1.3-0.3-2.2-0.9-2.9s-1.6-1-2.8-1h-1.6v7.8h1.4C401.7,61.8,403.1,60.4,403.1,57.8z"
		/>
</g>
<g class="st0">
	<path class="st1" d="M407.6,48.6h4.1c1.9,0,3.3,0.3,4.1,0.9s1.3,1.5,1.3,2.7c0,0.8-0.2,1.5-0.7,2.1c-0.5,0.5-1.1,0.9-2,1.1v0.1
		c1.1,0.2,1.9,0.6,2.4,1.1s0.8,1.3,0.8,2.3c0,1.3-0.4,2.3-1.3,3s-2.1,1.1-3.7,1.1h-5L407.6,48.6L407.6,48.6z M409.4,54.6h2.6
		c1.1,0,1.9-0.2,2.4-0.5s0.8-1,0.8-1.8s-0.3-1.3-0.8-1.7s-1.4-0.5-2.6-0.5h-2.4V54.6z M409.4,56.1v5.2h2.9c1.1,0,2-0.2,2.5-0.7
		c0.6-0.4,0.8-1.1,0.8-2s-0.3-1.5-0.9-1.9s-1.5-0.6-2.6-0.6H409.4z"/>
</g>
<g class="st0">
	<path class="st1" d="M420.6,62.8v-10h1.3v8.9h4.4v1.1C426.3,62.8,420.6,62.8,420.6,62.8z"/>
</g>
<g class="st0">
	<path class="st1" d="M436.9,57.8c0,1.6-0.4,2.9-1.2,3.8c-0.8,0.9-1.9,1.4-3.4,1.4s-2.6-0.5-3.4-1.3c-0.8-0.9-1.2-2.2-1.2-3.8
		s0.4-2.9,1.2-3.8c0.8-0.9,1.9-1.3,3.4-1.3c1.4,0,2.6,0.5,3.4,1.4C436.5,55,436.9,56.2,436.9,57.8z M429,57.8c0,1.3,0.3,2.3,0.8,3
		s1.4,1,2.5,1s1.9-0.3,2.4-1s0.8-1.7,0.8-3s-0.3-2.3-0.8-3c-0.6-0.7-1.4-1-2.4-1c-1.1,0-1.9,0.3-2.5,1C429.2,55.5,429,56.5,429,57.8
		z"/>
	<path class="st1" d="M443.8,53.8c-1.1,0-1.9,0.4-2.5,1.1s-0.9,1.7-0.9,3s0.3,2.3,0.9,3s1.4,1,2.5,1c0.7,0,1.5-0.1,2.4-0.4v1.1
		c-0.4,0.2-0.8,0.3-1.2,0.3c-0.4,0.1-0.8,0.1-1.4,0.1c-1.5,0-2.6-0.4-3.4-1.3c-0.8-0.9-1.2-2.2-1.2-3.8c0-1,0.2-1.9,0.6-2.7
		s0.9-1.4,1.7-1.8c0.7-0.4,1.6-0.6,2.6-0.6c1.1,0,2,0.2,2.8,0.6l-0.5,1.1C445.2,54,444.5,53.8,443.8,53.8z"/>
	<path class="st1" d="M456,62.8h-1.5L451,58l-1,0.9v3.9h-1.3v-10h1.3v4.9l0.9-1l3.6-4h1.5l-4,4.4L456,62.8z"/>
	<path class="st1" d="M463.4,62.8h-5.6v-10h5.6V54h-4.3v3.1h4.1v1.1h-4.1v3.6h4.3V62.8z"/>
	<path class="st1" d="M467.3,58.7v4.1H466v-10h2.8c1.2,0,2.2,0.2,2.8,0.7c0.6,0.5,0.9,1.2,0.9,2.1c0,1.3-0.7,2.2-2,2.7l2.7,4.5h-1.5
		l-2.4-4.1H467.3z M467.3,57.6h1.5c0.8,0,1.4-0.2,1.8-0.5s0.6-0.8,0.6-1.4s-0.2-1.1-0.6-1.4c-0.4-0.3-1-0.4-1.8-0.4h-1.4v3.7
		C467.4,57.6,467.3,57.6,467.3,57.6z"/>
</g>
<g class="st0">
	<path class="st1" d="M475.1,61.8c0-0.4,0.1-0.8,0.3-1c0.2-0.2,0.5-0.3,0.9-0.3s0.7,0.1,0.9,0.4c0.2,0.2,0.3,0.6,0.3,1
		s-0.1,0.7-0.3,1c-0.2,0.2-0.5,0.4-0.9,0.4s-0.7-0.1-0.9-0.4S475.1,62.2,475.1,61.8z M477,58.8h-1.1l-0.5-10.3h2.1L477,58.8z"/>
</g>
</svg>
